<?xml version="1.0" standalone="no"?>
<!DOCTYPE svg PUBLIC "-//W3C//DTD SVG 20010904//EN"
 "http://www.w3.org/TR/2001/REC-SVG-20010904/DTD/svg10.dtd">
<svg version="1.0" xmlns="http://www.w3.org/2000/svg"
 width="850.000000pt" height="206.000000pt" viewBox="0 0 850.000000 206.000000"
 preserveAspectRatio="xMidYMid meet">
<metadata>
Created by potrace 1.16, written by Peter Selinger 2001-2019
</metadata>
<g transform="translate(0.000000,206.000000) scale(0.100000,-0.100000)"
fill="#000000" stroke="none">
<path d="M8286 1430 c-5 -447 -4 -635 4 -650 11 -21 53 -27 77 -12 8 5 17 55
23 138 6 71 26 266 46 434 61 528 61 536 37 568 -24 32 -159 152 -171 152 -5
0 -12 -283 -16 -630z"/>
<path d="M1159 2040 c-53 -5 -208 -31 -345 -59 -137 -27 -285 -55 -329 -61
-92 -14 -256 -17 -301 -6 -72 18 -48 -44 31 -80 96 -44 183 -57 348 -50 137 5
148 4 143 -12 -14 -44 -57 -303 -75 -452 -49 -389 -59 -667 -27 -754 19 -53
13 -66 -30 -66 -33 0 -264 -66 -370 -106 -128 -47 -194 -81 -194 -98 0 -21 58
-66 85 -66 13 0 61 9 107 20 101 24 277 54 453 76 96 13 218 18 462 19 l331 2
52 38 c118 86 317 396 380 588 6 21 14 36 17 33 7 -7 60 -357 68 -453 11 -124
-18 -186 -78 -164 -32 12 -77 67 -84 102 -8 40 -20 36 -32 -8 -20 -71 -6 -135
40 -188 58 -65 184 -85 247 -38 58 43 67 67 66 166 -1 76 -11 129 -58 310 -51
198 -56 228 -55 320 0 56 6 137 13 180 l12 77 -23 0 c-57 0 -106 -44 -123
-110 -39 -151 -172 -445 -267 -590 -58 -88 -120 -152 -164 -171 -29 -11 -33
-11 -50 9 -33 42 -36 174 -8 412 12 104 48 349 55 372 3 9 22 22 42 28 20 7
89 37 152 69 113 55 114 56 75 59 -22 1 -85 -4 -140 -12 -55 -7 -102 -12 -104
-11 -1 2 7 60 19 128 13 69 20 131 17 140 -5 14 -144 63 -153 54 -4 -4 -34
-154 -58 -291 l-7 -39 -75 6 c-41 4 -100 15 -131 26 -68 23 -76 18 -70 -52 7
-85 59 -117 190 -117 l69 0 -6 -37 c-45 -288 -44 -600 4 -726 11 -28 18 -53
15 -55 -6 -6 -68 34 -90 58 -10 11 -24 20 -32 20 -8 0 -33 8 -56 19 -23 10
-78 22 -122 25 -44 4 -104 9 -134 13 l-53 6 7 631 c4 347 8 632 10 634 4 5
282 51 398 67 65 8 149 15 188 15 38 0 69 3 69 8 0 4 -29 37 -63 74 -58 63
-65 68 -112 72 -27 2 -93 0 -146 -4z"/>
<path d="M5637 2028 c-44 -68 -119 -285 -248 -718 -194 -652 -276 -865 -330
-865 -20 0 -27 8 -41 51 -34 102 -41 288 -33 891 l7 572 -33 21 c-27 16 -46
20 -87 17 -29 -2 -60 -10 -68 -19 -8 -8 -28 -73 -44 -144 -95 -429 -254 -902
-403 -1200 -179 -357 -359 -526 -545 -512 -73 5 -125 31 -183 88 -85 85 -133
222 -132 375 1 133 30 237 98 349 32 53 37 76 16 76 -14 0 -90 -115 -132 -199
-53 -106 -79 -212 -79 -320 0 -151 42 -263 136 -361 165 -174 410 -167 605 17
224 212 392 590 554 1253 38 151 71 278 74 282 3 4 6 -181 6 -410 1 -333 4
-446 18 -559 37 -299 101 -446 195 -446 107 0 202 213 427 966 38 125 72 227
77 227 5 0 5 -37 1 -82 -15 -153 -9 -494 10 -614 34 -218 67 -301 159 -399 69
-74 142 -115 205 -115 24 0 43 3 43 6 0 4 -21 29 -46 56 -116 124 -161 351
-151 772 6 261 24 440 64 636 42 206 45 180 -37 257 -40 37 -76 69 -80 71 -5
2 -15 -7 -23 -20z"/>
<path d="M7526 1988 c-5 -31 -68 -840 -101 -1308 -8 -113 -17 -231 -20 -262
l-5 -56 65 -41 c35 -23 69 -41 75 -41 6 0 10 43 10 114 0 132 20 258 55 353
29 77 125 256 134 248 3 -3 5 -106 6 -228 0 -203 2 -228 23 -290 51 -151 161
-187 274 -87 49 43 91 125 86 167 -5 42 -21 37 -50 -15 -28 -49 -71 -95 -100
-105 -26 -9 -58 23 -68 68 -13 56 -12 271 2 401 22 214 23 210 -61 235 l-44
13 -46 -51 c-25 -28 -73 -101 -106 -163 -33 -61 -68 -121 -78 -133 -18 -21
-18 -19 -12 98 8 146 36 452 70 752 29 254 30 248 -49 321 -25 23 -48 42 -50
42 -3 0 -8 -15 -10 -32z"/>
<path d="M1825 1864 c-16 -8 -40 -24 -52 -36 l-21 -20 23 -34 c45 -66 57 -199
30 -328 -8 -38 -12 -73 -9 -77 12 -20 25 -6 58 59 86 170 112 376 55 433 -23
23 -44 24 -84 3z"/>
<path d="M6652 1678 c-7 -7 -12 -22 -12 -35 0 -12 -11 -87 -25 -165 -14 -78
-25 -144 -25 -147 0 -10 -199 9 -239 23 -25 8 -48 13 -53 10 -12 -8 -9 -86 5
-113 26 -52 55 -63 166 -62 l103 1 -6 -48 c-25 -190 -34 -510 -17 -600 8 -40
7 -44 -26 -72 -24 -21 -44 -30 -69 -30 -31 0 -37 4 -51 37 -13 32 -14 67 -9
213 3 96 9 210 12 253 l7 78 -40 15 c-33 13 -43 24 -65 75 -23 50 -33 62 -70
79 -60 27 -111 25 -168 -6 -79 -43 -133 -121 -179 -260 -73 -219 -54 -457 45
-544 37 -32 89 -46 131 -35 41 10 105 83 146 164 l36 71 11 -53 c15 -73 51
-138 90 -164 58 -40 137 -25 194 36 l29 31 34 -40 c83 -96 206 -35 243 121
l12 50 28 -58 c87 -182 309 -239 427 -110 49 53 67 102 67 187 0 103 -56 197
-107 177 -12 -4 -12 -14 0 -69 32 -147 -28 -270 -132 -270 -73 0 -134 62 -155
157 -35 156 67 432 182 491 16 8 33 12 38 9 18 -11 10 -71 -15 -120 -26 -53
-22 -65 23 -65 44 0 91 28 109 65 15 31 15 45 6 101 -15 84 -41 133 -83 156
-130 69 -294 -73 -372 -322 -19 -61 -23 -97 -23 -197 0 -68 -3 -123 -8 -123
-4 0 -14 -18 -23 -40 -17 -41 -74 -100 -98 -100 -8 0 -24 9 -37 19 -21 17 -24
30 -27 99 -7 141 43 604 69 654 5 10 20 18 32 18 26 0 283 52 380 77 47 12 72
24 79 38 6 11 17 24 24 28 8 4 14 13 14 19 0 14 -106 7 -317 -22 -95 -13 -175
-21 -179 -18 -3 4 6 68 21 142 15 74 25 140 22 148 -2 8 -31 22 -63 32 -33 9
-64 19 -69 22 -6 2 -16 -1 -23 -8z m-419 -656 c27 -25 28 -31 22 -82 -10 -90
-55 -281 -81 -346 -43 -107 -125 -180 -173 -154 -84 44 -25 439 84 568 50 59
96 63 148 14z"/>
<path d="M2672 1189 c-188 -93 -297 -532 -186 -750 44 -88 137 -124 208 -80
37 24 107 119 127 176 17 45 25 44 32 -3 10 -59 58 -144 96 -169 20 -14 49
-23 70 -23 80 1 168 85 177 171 l5 44 -43 -47 c-63 -67 -119 -88 -148 -53 -27
33 -34 139 -20 312 21 258 22 245 -27 267 -29 14 -43 27 -46 45 -9 41 -49 95
-87 113 -47 24 -106 23 -158 -3z m135 -149 c17 -10 36 -27 41 -37 17 -34 -29
-277 -77 -404 -55 -146 -157 -209 -203 -126 -7 13 -12 58 -11 112 2 186 83
417 162 460 35 19 50 18 88 -5z"/>
<path d="M8256 609 c-94 -74 -66 -214 45 -226 31 -4 56 0 76 10 33 18 63 70
63 112 0 36 -27 92 -54 110 -31 22 -98 19 -130 -6z"/>
</g>
</svg>
